<svg width="530" height="429" viewBox="0 0 530 429" fill="none" xmlns="http://www.w3.org/2000/svg">
<path d="M65 0L297 102.704L65 206V0Z" fill="#191B1E"/>
<path d="M139.414 162.32L118.068 171.786L100.834 125.05V179.477L75.7357 190.643V15.0983L100.834 26.2524V75.3552L115.434 32.7353L138.817 43.076L152.647 130.312L164.699 54.5259L218.487 78.3748V89.3933L187.412 75.6263L186.12 83.7732L218.487 98.1564V127.12L176.217 146.014L180.069 121.783L201.166 112.306L176.217 101.225L168.551 149.354L140.085 162.012L122.802 73.2846L114.34 97.3183L139.414 162.32Z" fill="white"/>
<path d="M227.445 82.3554L273.38 102.679L227.445 123.077V82.3554Z" fill="#F4691B"/>
<rect x="430.832" y="283.483" width="40.1567" height="40.1567" transform="rotate(-21.3985 430.832 283.483)" stroke="#F4691B" stroke-width="9"/>
<circle cx="207" cy="386" r="38.5" stroke="#F4691B" stroke-width="9"/>
<circle cx="470.5" cy="107.5" r="23" stroke="#F4691B" stroke-width="9"/>
<rect x="46" y="304.368" width="20.1939" height="20.1939" transform="rotate(-21.3985 46 304.368)" fill="#F4691B"/>
<path fill-rule="evenodd" clip-rule="evenodd" d="M302.108 238.594L290.088 250.615L298.573 259.1L310.594 247.08L322.615 259.1L331.1 250.615L319.079 238.594L331.1 226.573L322.615 218.088L310.594 230.109L298.573 218.088L290.088 226.573L302.108 238.594Z" fill="#F4691B"/>
</svg>
