<svg width="13" height="13" viewBox="0 0 13 13" fill="none" xmlns="http://www.w3.org/2000/svg">
<path d="M11.0415 8.28487V11.2545H1.95779V8.28487H0.211914V12.1275C0.211914 12.6092 0.6022 13 1.08616 13H11.9131C12.3966 13 12.7874 12.6097 12.7874 12.1275V8.28487H11.0415Z" fill="#68717B"/>
<path d="M6.33984 7.99046L3.84027 4.97008C3.84027 4.97008 3.45996 4.61101 3.87236 4.61101C4.28476 4.61101 5.28086 4.61101 5.28086 4.61101C5.28086 4.61101 5.28086 4.36947 5.28086 3.99696C5.28086 2.93495 5.28086 1.00217 5.28086 0.214224C5.28086 0.214224 5.22492 0 5.54756 0C5.8728 0 7.29734 0 7.53021 0C7.76265 0 7.75744 0.180399 7.75744 0.180399C7.75744 0.944493 7.75744 2.94406 7.75744 3.97138C7.75744 4.30442 7.75744 4.52038 7.75744 4.52038C7.75744 4.52038 8.55623 4.52038 9.05753 4.52038C9.55796 4.52038 9.18112 4.89636 9.18112 4.89636C9.18112 4.89636 7.05449 7.71943 6.75788 8.01561C6.54452 8.23027 6.33984 7.99046 6.33984 7.99046Z" fill="#68717B"/>
</svg>
