<svg width="20" height="18" viewBox="0 0 20 18" fill="none" xmlns="http://www.w3.org/2000/svg">
<path d="M18.487 1.49955C16.4696 -0.499851 13.1981 -0.499851 11.1808 1.49955L1.13524 11.4555C-0.378414 12.9556 -0.378414 15.3864 1.13524 16.8866C2.38285 18.1231 4.26462 18.3228 5.73567 17.5202C7.20673 16.7176 14.2718 9.29825 16.2035 7.3838C17.2122 6.38412 17.2122 4.76361 16.2035 3.76394C15.1948 2.76426 13.5598 2.76426 12.5511 3.76394L4.33178 11.9099C4.07991 12.1595 4.07991 12.5653 4.33178 12.8149C4.58364 13.0645 4.99306 13.0645 5.24487 12.8149L13.4642 4.66889C13.9692 4.1684 14.7867 4.1684 15.2904 4.66889C15.7954 5.16937 15.7954 5.9796 15.2904 6.47885L5.70082 15.9829C4.69215 16.9826 3.05706 16.9826 2.04839 15.9829C1.03972 14.9832 1.03972 13.3627 2.04839 12.363L12.0939 2.40451C13.6075 0.904344 16.0601 0.904344 17.5739 2.40451C19.0875 3.90467 19.0875 6.33541 17.5739 7.83562L8.44146 16.8866C8.18959 17.1362 8.18959 17.542 8.44146 17.7916C8.69333 18.0412 9.10274 18.0412 9.35455 17.7916L18.487 8.74058C20.5043 6.74123 20.5043 3.49896 18.487 1.49955Z" fill="#68717B"/>
</svg>
