<?xml version="1.0" encoding="utf-8"?><svg viewBox="0 0 20 21" xmlns="http://www.w3.org/2000/svg" xmlns:xlink="http://www.w3.org/1999/xlink"><style>:root>svg{display:none}:root>svg:target{display:block}</style><svg fill="none" viewBox="0 0 16 16" id="icon-arrow" xmlns="http://www.w3.org/2000/svg"><path d="M2 11l6-6 6 6" stroke="var(--icon-color, #ffffff)" stroke-width="2"/></svg><svg fill="none" viewBox="0 0 16 16" id="icon-calendar" xmlns="http://www.w3.org/2000/svg"><path d="M16 2.596v12a.994.994 0 01-.996.995H.996A.994.994 0 010 14.596v-12C0 2.044.444 1.6.996 1.6h1.208V.693c0-.39.32-.693.694-.693.373 0 .693.32.693.693V1.6H5.6V.693c0-.39.32-.693.693-.693.374 0 .694.32.694.693V1.6h2.009V.693c0-.39.32-.693.693-.693.373 0 .693.32.693.693V1.6h2.01V.693c0-.39.32-.693.692-.693.374 0 .694.32.694.693V1.6h1.209A.976.976 0 0116 2.596zM2.009 3.59v1.493h12V3.591h-12zm12 9.991V6.49h-12v7.093h12zM4.8 8.284c0 .392-.32.694-.693.694a.706.706 0 01-.694-.694c0-.373.32-.693.694-.693.373 0 .693.32.693.693zm2.596 0c0 .392-.32.694-.694.694a.706.706 0 01-.693-.694c0-.373.32-.693.693-.693.374 0 .694.32.694.693zm2.595 0c0 .392-.32.694-.693.694a.706.706 0 01-.694-.694c0-.373.32-.693.694-.693.373 0 .693.32.693.693zm2.596 0a.694.694 0 11-.694-.693c.374 0 .694.32.694.693zM4.8 11.29c0 .391-.32.693-.693.693a.706.706 0 01-.694-.693c0-.373.32-.693.694-.693.373 0 .693.32.693.693zm2.596 0c0 .391-.32.693-.694.693a.706.706 0 01-.693-.693c0-.373.32-.693.693-.693.374 0 .694.32.694.693zm2.595 0c0 .391-.32.693-.693.693a.706.706 0 01-.694-.693c0-.373.32-.693.694-.693.373 0 .693.32.693.693zm2.596 0a.694.694 0 11-.694-.693c.374 0 .694.32.694.693z" fill="#969BA0"/></svg><svg fill="none" viewBox="0 0 20 18" id="icon-clip" xmlns="http://www.w3.org/2000/svg"><path d="M18.487 1.5a5.2 5.2 0 00-7.306 0L1.135 11.456a3.815 3.815 0 000 5.43c1.248 1.237 3.13 1.437 4.6.634 1.472-.802 8.537-8.222 10.468-10.136a2.543 2.543 0 000-3.62c-1.008-1-2.643-1-3.652 0l-8.22 8.146a.636.636 0 000 .905.65.65 0 00.914 0l8.22-8.146c.504-.5 1.322-.5 1.825 0 .505.5.505 1.31 0 1.81L5.7 15.983c-1.008 1-2.643 1-3.652 0a2.543 2.543 0 010-3.62l10.046-9.958a3.899 3.899 0 015.48 0 3.816 3.816 0 010 5.43L8.44 16.888a.636.636 0 000 .905.65.65 0 00.914 0l9.132-9.051a5.088 5.088 0 000-7.241z" fill="#68717B"/></svg><svg fill="none" viewBox="0 0 20 20" id="icon-close" xmlns="http://www.w3.org/2000/svg"><path d="M3 3l7.071 7.071m0 0l7.071 7.071m-7.07-7.07L3 17.141m7.071-7.07L17.142 3" stroke="var(--icon-color, #C4C4C4)" stroke-width="2"/></svg><svg fill="none" viewBox="0 0 13 13" id="icon-download" xmlns="http://www.w3.org/2000/svg"><path d="M11.041 8.285v2.97H1.958v-2.97H.212v3.842c0 .482.39.873.874.873h10.827c.484 0 .874-.39.874-.873V8.285h-1.746zM6.34 7.99l-2.5-3.02s-.38-.359.032-.359h1.409v-.614V.214S5.225 0 5.548 0H7.53c.233 0 .227.18.227.18v4.341h1.3c.501 0 .124.375.124.375S7.054 7.72 6.758 8.016c-.213.214-.418-.026-.418-.026z" fill="#68717B"/></svg><svg fill="none" viewBox="0 0 13 13" id="icon-eye" xmlns="http://www.w3.org/2000/svg"><path d="M6.5 2C4.016 2 1.764 3.359.102 5.566a.515.515 0 000 .614C1.764 8.39 4.016 9.75 6.5 9.75c2.484 0 4.736-1.36 6.398-3.567a.515.515 0 000-.614C11.236 3.359 8.984 2 6.5 2zm.178 6.603a2.736 2.736 0 01-2.906-2.907 2.74 2.74 0 012.55-2.55 2.736 2.736 0 012.906 2.907 2.749 2.749 0 01-2.55 2.55zm-.082-1.26a1.47 1.47 0 01-1.564-1.564 1.479 1.479 0 011.375-1.375A1.47 1.47 0 017.97 5.968a1.479 1.479 0 01-1.375 1.375z" fill="#68717B"/></svg><svg fill="none" viewBox="0 0 13 13" id="icon-ok" xmlns="http://www.w3.org/2000/svg"><path d="M6.5 0a6.5 6.5 0 100 13 6.5 6.5 0 000-13zm0 11.781a5.281 5.281 0 110-10.562 5.281 5.281 0 010 10.562zm2.555-8.046a.566.566 0 00-.788.22l-2.18 3.914-1.214-1.477c-.22-.253-.512-.384-.788-.22-.276.166-.39.564-.211.819l1.689 2.056c.126.164.27.262.421.29l.002.003H6c.034.006.544.1.764-.293l2.502-4.494a.612.612 0 00-.212-.818z" fill="#99A30E"/></svg><svg fill="none" viewBox="0 0 13 13" id="icon-ok_or" xmlns="http://www.w3.org/2000/svg"><path d="M6.5 0a6.5 6.5 0 100 13 6.5 6.5 0 000-13zm0 11.781a5.281 5.281 0 110-10.562 5.281 5.281 0 010 10.562zm2.555-8.046a.566.566 0 00-.788.22l-2.18 3.914-1.214-1.477c-.22-.253-.512-.384-.788-.22-.276.166-.39.564-.211.819l1.689 2.056c.126.164.27.262.421.29l.002.003H6c.034.006.544.1.764-.293l2.502-4.494a.612.612 0 00-.212-.818z" fill="#f4691b"/></svg><svg fill="none" viewBox="0 0 13 13" id="icon-pencil" xmlns="http://www.w3.org/2000/svg"><path d="M0 10.292V13h2.708l7.987-7.987-2.708-2.708L0 10.292zm12.789-7.373a.72.72 0 000-1.018l-1.69-1.69a.72.72 0 00-1.018 0L8.759 1.533l2.708 2.708 1.322-1.322z" fill="#68717B"/></svg><svg fill="none" viewBox="0 0 5 21" id="icon-point" xmlns="http://www.w3.org/2000/svg"><circle cx="2.5" cy="2.5" r="2.5" fill="var(--icon-color, #575757)"/><circle cx="2.5" cy="10.5" r="2.5" fill="var(--icon-color, #575757)"/><circle cx="2.5" cy="18.5" r="2.5" fill="var(--icon-color, #575757)"/></svg><svg fill="none" viewBox="0 0 13 13" id="icon-print" xmlns="http://www.w3.org/2000/svg"><path d="M10.727 2.514v-.61C10.727.854 9.873 0 8.823 0H4.151c-1.05 0-1.904.854-1.904 1.904v.61h8.48zM3.009 8.1v4.138c0 .421.34.762.762.762h5.433c.42 0 .762-.341.762-.762V8.1H3.009zm4.494 3.25H5.472a.38.38 0 110-.762h2.03a.38.38 0 110 .762zm0-1.625H5.472a.38.38 0 010-.762h2.03a.38.38 0 010 .762z" fill="#68717B"/><path d="M11.083 3.275H1.917C.867 3.275.013 4.13.013 5.18v3.047c0 1.05.854 1.904 1.904 1.904h.33V8.1H2.02a.38.38 0 010-.762h8.937a.38.38 0 010 .762h-.229v2.03h.356c1.05 0 1.904-.853 1.904-1.903V5.18c0-1.05-.854-1.905-1.904-1.905zM3.237 5.662H2.02a.38.38 0 010-.762h1.218a.38.38 0 010 .762z" fill="#68717B"/></svg><svg fill="none" viewBox="0 0 13 13" id="icon-time" xmlns="http://www.w3.org/2000/svg"><path d="M6.5 0A6.507 6.507 0 000 6.5C0 10.084 2.916 13 6.5 13S13 10.084 13 6.5 10.084 0 6.5 0zm0 11.617A5.123 5.123 0 011.383 6.5 5.123 5.123 0 016.5 1.383 5.123 5.123 0 0111.617 6.5 5.123 5.123 0 016.5 11.617z" fill="#FF8635"/><path d="M9.888 6.3H6.967V2.787a.535.535 0 00-1.07 0v4.048c0 .295.239.535.535.535h3.456a.535.535 0 000-1.07z" fill="#FF8635"/></svg><svg fill="none" viewBox="0 0 13 13" id="icon-trash" xmlns="http://www.w3.org/2000/svg"><path d="M5.418.785h2.173v.365h.784V.734A.734.734 0 007.642 0H5.366a.734.734 0 00-.733.734v.416h.785V.785zM10.187 4.26H2.821a.346.346 0 00-.344.373l.616 7.615a.818.818 0 00.814.752h5.194c.426 0 .78-.327.815-.753l.616-7.614a.345.345 0 00-.345-.374zm-5.582 7.928H4.58a.392.392 0 01-.391-.368L3.803 5.57a.392.392 0 01.783-.048l.386 6.251a.392.392 0 01-.367.416zm2.296-.392a.392.392 0 01-.785 0V5.545a.392.392 0 11.785 0v6.251zm2.304-6.228l-.368 6.251a.392.392 0 11-.783-.046l.368-6.251a.392.392 0 11.783.046zM11.545 3.048l-.258-.772a.499.499 0 00-.473-.341H2.196a.499.499 0 00-.473.341l-.258.772a.323.323 0 00.307.427h9.466a.323.323 0 00.307-.426z" fill="#68717B"/></svg></svg>