<svg width="13" height="13" viewBox="0 0 13 13" fill="none" xmlns="http://www.w3.org/2000/svg">
<path d="M6.5002 0C2.90968 0 0 2.91036 0 6.5C0 10.09 2.91004 13 6.5002 13C10.09 13 13 10.09 13 6.5C13 2.91077 10.09 0 6.5002 0ZM6.5002 11.7812C3.58325 11.7812 1.21881 9.41686 1.21881 6.5C1.21881 3.58314 3.58366 1.21877 6.5002 1.21877C9.41675 1.21877 11.7812 3.58314 11.7812 6.5C11.7812 9.41686 9.41679 11.7812 6.5002 11.7812ZM9.0548 3.73507C8.77853 3.57014 8.42549 3.66803 8.26665 3.95444L6.08704 7.86947L4.87314 6.39193C4.65336 6.13884 4.36127 6.00764 4.0854 6.17256C3.80913 6.33789 3.69496 6.73564 3.87375 6.99077L5.56299 9.04679C5.68933 9.2109 5.83354 9.30924 5.98429 9.33728L5.98551 9.33974L6.00097 9.34056C6.0351 9.34583 6.54538 9.44008 6.76516 9.04684L9.26695 4.55332C9.4257 4.26642 9.33108 3.9004 9.0548 3.73507Z" fill="#99A30E"/>
</svg>
