<svg width="13" height="13" viewBox="0 0 13 13" fill="none" xmlns="http://www.w3.org/2000/svg">
<path d="M6.5 0C2.9159 0 0 2.9159 0 6.5C0 10.0841 2.9159 13 6.5 13C10.0841 13 13 10.0841 13 6.5C13 2.9159 10.0841 0 6.5 0ZM6.5 11.6169C3.67856 11.6169 1.38296 9.32157 1.38296 6.5C1.38296 3.67843 3.67856 1.38309 6.5 1.38309C9.32144 1.38309 11.617 3.67843 11.617 6.5C11.617 9.32157 9.32144 11.6169 6.5 11.6169Z" fill="#FF8635"/>
<path d="M9.88786 6.2996H6.96674V2.78735C6.96674 2.49178 6.7271 2.25215 6.43154 2.25215C6.13597 2.25215 5.89634 2.49178 5.89634 2.78735V6.8348C5.89634 7.13036 6.13597 7.37 6.43154 7.37H9.88786C10.1834 7.37 10.4231 7.13036 10.4231 6.8348C10.4231 6.53923 10.1834 6.2996 9.88786 6.2996Z" fill="#FF8635"/>
</svg>
