<svg width="13" height="13" viewBox="0 0 13 13" fill="none" xmlns="http://www.w3.org/2000/svg">
<path d="M6.5 2C4.01621 2 1.76378 3.3589 0.101718 5.56612C-0.0339061 5.74696 -0.0339061 5.99959 0.101718 6.18042C1.76378 8.3903 4.01621 9.74921 6.5 9.74921C8.98379 9.74921 11.2362 8.3903 12.8983 6.18308C13.0339 6.00225 13.0339 5.74962 12.8983 5.56878C11.2362 3.3589 8.98379 2 6.5 2ZM6.67817 8.60305C5.02941 8.70676 3.66784 7.34786 3.77156 5.69643C3.85665 4.33487 4.96026 3.23126 6.32183 3.14616C7.97059 3.04245 9.33216 4.40135 9.22844 6.05278C9.14069 7.41168 8.03708 8.51529 6.67817 8.60305ZM6.59573 7.34254C5.70753 7.39838 4.97356 6.66708 5.03207 5.77887C5.07727 5.0449 5.67296 4.45188 6.40692 4.40401C7.29513 4.34816 8.0291 5.07947 7.97059 5.96768C7.92273 6.70431 7.32704 7.29733 6.59573 7.34254Z" fill="#68717B"/>
</svg>
