<svg width="13" height="13" viewBox="0 0 13 13" fill="none" xmlns="http://www.w3.org/2000/svg">
<path d="M10.7275 2.51367V1.9043C10.7275 0.854268 9.87327 0 8.82324 0H4.15137C3.10134 0 2.24707 0.854268 2.24707 1.9043V2.51367H10.7275Z" fill="#68717B"/>
<path d="M3.00879 8.09961V12.2383C3.00879 12.659 3.34981 13 3.77051 13H9.2041C9.6248 13 9.96582 12.659 9.96582 12.2383V8.09961H3.00879ZM7.50293 11.3496H5.47168C5.26134 11.3496 5.09082 11.1791 5.09082 10.9688C5.09082 10.7584 5.26134 10.5879 5.47168 10.5879H7.50293C7.71327 10.5879 7.88379 10.7584 7.88379 10.9688C7.88379 11.1791 7.71327 11.3496 7.50293 11.3496ZM7.50293 9.72461H5.47168C5.26134 9.72461 5.09082 9.55409 5.09082 9.34375C5.09082 9.13341 5.26134 8.96289 5.47168 8.96289H7.50293C7.71327 8.96289 7.88379 9.13341 7.88379 9.34375C7.88379 9.55409 7.71327 9.72461 7.50293 9.72461Z" fill="#68717B"/>
<path d="M11.083 3.27539H1.91699C0.866963 3.27539 0.0126953 4.12966 0.0126953 5.17969V8.22656C0.0126953 9.27659 0.866963 10.1309 1.91699 10.1309H2.24707V8.09961H2.01855C1.80822 8.09961 1.6377 7.92909 1.6377 7.71875C1.6377 7.50841 1.80822 7.33789 2.01855 7.33789H10.9561C11.1664 7.33789 11.3369 7.50841 11.3369 7.71875C11.3369 7.92909 11.1664 8.09961 10.9561 8.09961H10.7275V10.1309H11.083C12.133 10.1309 12.9873 9.27659 12.9873 8.22656V5.17969C12.9873 4.12966 12.133 3.27539 11.083 3.27539ZM3.2373 5.66211H2.01855C1.80822 5.66211 1.6377 5.49159 1.6377 5.28125C1.6377 5.07091 1.80822 4.90039 2.01855 4.90039H3.2373C3.44764 4.90039 3.61816 5.07091 3.61816 5.28125C3.61816 5.49159 3.44764 5.66211 3.2373 5.66211Z" fill="#68717B"/>
</svg>
