<svg width="13" height="13" viewBox="0 0 13 13" fill="none" xmlns="http://www.w3.org/2000/svg">
<path d="M5.41808 0.784729H7.59076V1.15031H8.37539V0.733551C8.37549 0.329086 8.0466 0 7.64233 0H5.3665C4.96223 0 4.63335 0.329086 4.63335 0.733551V1.15031H5.41808V0.784729Z" fill="#68717B"/>
<path d="M10.1872 4.25928H2.82117C2.61933 4.25928 2.46044 4.43146 2.47671 4.6327L3.09253 12.2475C3.12684 12.6726 3.48142 13 3.90741 13H9.10088C9.52687 13 9.88145 12.6726 9.91576 12.2474L10.5316 4.6327C10.5479 4.43146 10.3891 4.25928 10.1872 4.25928ZM4.60476 12.1878C4.59653 12.1883 4.58829 12.1886 4.58016 12.1886C4.37446 12.1886 4.20178 12.0284 4.18899 11.8203L3.80307 5.56898C3.78978 5.35266 3.95432 5.1665 4.17054 5.15321C4.38606 5.14011 4.57302 5.30426 4.58631 5.52068L4.97213 11.772C4.98552 11.9883 4.82097 12.1744 4.60476 12.1878ZM6.90092 11.7962C6.90092 12.0128 6.72527 12.1885 6.50856 12.1885C6.29185 12.1885 6.11619 12.0128 6.11619 11.7962V5.54478C6.11619 5.32806 6.29185 5.15241 6.50856 5.15241C6.72517 5.15241 6.90092 5.32806 6.90092 5.54478V11.7962ZM9.20532 5.56789L8.83686 11.8192C8.82466 12.0277 8.65169 12.1885 8.44559 12.1885C8.43785 12.1885 8.43001 12.1883 8.42218 12.1879C8.20586 12.1751 8.04082 11.9894 8.05362 11.7731L8.42198 5.52167C8.43468 5.30535 8.61975 5.14031 8.83666 5.15311C9.05298 5.1658 9.21802 5.35157 9.20532 5.56789Z" fill="#68717B"/>
<path d="M11.5448 3.04846L11.2871 2.27603C11.2192 2.07241 11.0285 1.93504 10.8138 1.93504H2.19596C1.98133 1.93504 1.79061 2.07241 1.72276 2.27603L1.46509 3.04846C1.4154 3.19743 1.48007 3.34938 1.60077 3.42516C1.64997 3.456 1.70819 3.47455 1.77216 3.47455H11.2377C11.3017 3.47455 11.36 3.456 11.4091 3.42506C11.5298 3.34928 11.5945 3.19733 11.5448 3.04846Z" fill="#68717B"/>
</svg>
