<svg width="16" height="16" viewBox="0 0 16 16" fill="none" xmlns="http://www.w3.org/2000/svg">
<path d="M16 2.59556V14.5956C16 15.1467 15.5556 15.5911 15.0044 15.5911H0.995556C0.444445 15.5911 0 15.1467 0 14.5956V2.59556C0 2.04444 0.444445 1.6 0.995556 1.6H2.20444V0.693333C2.20444 0.302222 2.52444 0 2.89778 0C3.27111 0 3.59111 0.32 3.59111 0.693333V1.6H5.6V0.693333C5.6 0.302222 5.92 0 6.29333 0C6.66667 0 6.98667 0.32 6.98667 0.693333V1.6H8.99556V0.693333C8.99556 0.302222 9.31556 0 9.68889 0C10.0622 0 10.3822 0.32 10.3822 0.693333V1.6H12.3911V0.693333C12.3911 0.302222 12.7111 0 13.0844 0C13.4578 0 13.7778 0.32 13.7778 0.693333V1.6H14.9867C15.5556 1.58222 16 2.02667 16 2.59556ZM2.00889 3.59111V5.08444H14.0089V3.59111H2.00889ZM14.0089 13.5822V6.48889H2.00889V13.5822H14.0089ZM4.8 8.28444C4.8 8.67556 4.48 8.97778 4.10667 8.97778C3.73333 8.97778 3.41333 8.65778 3.41333 8.28444C3.41333 7.91111 3.73333 7.59111 4.10667 7.59111C4.48 7.59111 4.8 7.91111 4.8 8.28444ZM7.39556 8.28444C7.39556 8.67556 7.07556 8.97778 6.70222 8.97778C6.32889 8.97778 6.00889 8.65778 6.00889 8.28444C6.00889 7.91111 6.32889 7.59111 6.70222 7.59111C7.07556 7.59111 7.39556 7.91111 7.39556 8.28444ZM9.99111 8.28444C9.99111 8.67556 9.67111 8.97778 9.29778 8.97778C8.92444 8.97778 8.60444 8.65778 8.60444 8.28444C8.60444 7.91111 8.92444 7.59111 9.29778 7.59111C9.67111 7.59111 9.99111 7.91111 9.99111 8.28444ZM12.5867 8.28444C12.5867 8.67556 12.2667 8.97778 11.8933 8.97778C11.52 8.97778 11.2 8.67556 11.2 8.28444C11.2 7.89333 11.52 7.59111 11.8933 7.59111C12.2667 7.59111 12.5867 7.91111 12.5867 8.28444ZM4.8 11.2889C4.8 11.68 4.48 11.9822 4.10667 11.9822C3.73333 11.9822 3.41333 11.6622 3.41333 11.2889C3.41333 10.9156 3.73333 10.5956 4.10667 10.5956C4.48 10.5956 4.8 10.9156 4.8 11.2889ZM7.39556 11.2889C7.39556 11.68 7.07556 11.9822 6.70222 11.9822C6.32889 11.9822 6.00889 11.6622 6.00889 11.2889C6.00889 10.9156 6.32889 10.5956 6.70222 10.5956C7.07556 10.5956 7.39556 10.9156 7.39556 11.2889ZM9.99111 11.2889C9.99111 11.68 9.67111 11.9822 9.29778 11.9822C8.92444 11.9822 8.60444 11.6622 8.60444 11.2889C8.60444 10.9156 8.92444 10.5956 9.29778 10.5956C9.67111 10.5956 9.99111 10.9156 9.99111 11.2889ZM12.5867 11.2889C12.5867 11.68 12.2667 11.9822 11.8933 11.9822C11.52 11.9822 11.2 11.68 11.2 11.2889C11.2 10.8978 11.52 10.5956 11.8933 10.5956C12.2667 10.5956 12.5867 10.9156 12.5867 11.2889Z" fill="#969BA0"/>
</svg>
